<?xml version="1.0" encoding="UTF-8"?>
<svg viewBox="0 0 77.51825 90" xmlns="http://www.w3.org/2000/svg">
 <path d="m0 0h77.518v90h-77.518z" fill="#d7e3f4"/>
 <path d="m22.5 70.62s-11.292 3.032-20.036 7.5547c-1.1907 0.61587-1.9477 0.7162-2.5046 1.6423 0.01797 2.5685-0.09862 10.445 0.04106 10.306l77.6-0.08212c0.0032-2.4224 0.09574-10.391 0-11.578-0.6295-0.90039-0.73905-0.94434-1.5602-1.437s-24.635-7.719-24.635-7.719z" fill="#87aade" opacity=".7757"/>
 <path d="m55.03667,48.96598c.03746-.10239.08165-.13876.11311-.23407 .05256-.16385.07201-.33656.10184-.50887 .04092-.23559.08729-.47179.1273-.71242 .04237-.25347.07492-.51845.1273-.76332s.12021-.46991.20355-.68698c.11984-.31348.21985-.59509.30534-.86509 .13712-.43312.26653-.95279.35622-1.50116 .06747-.40586.12839-.83897.05092-1.27219-.04346-.26984-.06583-.5056-.31699-.64777-.09347-.04819-.20668-.07602-.30532-.07638-.1644-.00076-.31461.04237-.45798.10184-.18302.0742-.36086.19748-.50889.30532-.12512.09111-.31306.27644-.44527.34858l-.35875.04819c.02982-.08311-.03601-.24672-.01455-.34603 .28413-1.36919.78691-6.01074.76419-8.28299-.05201-5.17994 1.4992-7.23958-2.24503-11.76517-.94132-1.13776-2.37345-2.47207-3.60283-3.32043 .64731.16894 1.15045.24421 1.87771.60301-1.59927-1.29218-3.01884-1.99745-4.21856-2.61561 .57745.08911 1.31458.276 1.91592.37149-3.87752-1.91674-6.51928-2.14179-9.05537-2.12453l-.64121.06874c-1.11576.0073-1.57154.06729-2.37131.23663-2.5001-.11184-6.01058-.42143-9.54387,1.2925 .50003-.02801.92372-.04692 1.32307-.05092-1.58242.73752-3.34452,1.68935-5.32027,3.82671 .44713-.24532.83906-.45733 1.22129-.63608-1.50886,1.42509-3.1866,3.68143-3.99469,5.74522-.88605,2.26295-.69118,12.23758-.34605,13.9686 .31836,1.59662.01273,2.63287-.02146,2.77153-.01273-.0073-.01273-.01964-.02546-.02546-.22783-.10948-.58274-.23314-.85687-.11039-.27202.14403-.37068.39857-.42401.66956-.09693.44773.01273.87001.10184,1.27203 .14221.67077.31139,1.32387.46635,1.8321 .05656.18522.12712.37124.19519.58521s.12803.43587.16112.67845 .0471.51711.06783.77185c.01873.23465.01273.44607.03383.67843 .01455.1704.01818.34313.05928.50889 .0451.17349.11439.31739.20211.45478l.02546.05092c.01818.14112.16658.33991.16913.64782 .0018.23854.08475.52033.05983.79656s-.0642.5472-.10184.80638c-.02764.18707-.0491.36544-.05474.52651-.0055.11475.0091.25074.02546.38164 .03637.30444.13384.58519.31905.86709 .10857.16767.04746.17786.22699.26556 .15349.07329.29206.12566.44235.14476 .19537.02528.39288.05165.55195.10184 .21757.06856.3779.11657.54846.25052 .23583.18518.43573.31319.7754.56228 .0271.08547.08311.15203.11093.24458 .09475.31483.24161.70273.4071,1.06862 .2518.55604.60782,1.18537.94203,1.76453l.01273.27069c1.26852,5.64047.36196,10.262-2.08337,13.7791 4.21656,8.6263 10.85461,7.84648 16.71511,8.13309 5.74734.28106 14.45411-4.75241 13.86823-8.18397-1.97099-3.34136-2.35878-8.03607-1.81641-12.17417 .15276-1.12705.2722-1.57058.54424-2.14589 .24969-.55359.41681-.86278.65164-1.34937 .32414-.67336.49852-1.35819.61065-1.93371 .01637-.08129.03637-.18346.06965-.28644 .09911-.0702.2233-.1333.28271-.17149 .17513-.11275.43389-.26602.73788-.38164 .09002-.03383.18302-.06529.27989-.1273 .10384-.06856.18689-.18022.25442-.27988 .18535-.26905.30561-.57537.35622-.89055 .04728-.30128.09947-.5623.09002-.79264-.00082-.02691.0008-.04819 0-.07638-.01273-.29823-.09675-.68112-.06474-1.0432s.10675-.71251.17822-.96687 .1193-.32283.16676-.45291l-1.8e-005,3.7e-005v1.8e-005h-3.6e-005 7.2e-005-3.6e-005z" fill="#87aade"/>
 <path d="m39.31329,14.82612c-1.11577.0073-2.07537.11039-2.87514.27987-2.672-.3267-6.8837-.18776-10.25381,1.73019 .50003-.02801.92372-.0471 1.32307-.05092-1.58242.7375-3.39288,2.00996-5.36863,4.14733 .44715-.24532.8645-.45733 1.24675-.63609-1.50887,1.42509-2.72858,3.15216-3.53669,5.21597-.88605,2.26295-.59956,12.23758-.25443,13.9686 .31836,1.59664.11057,2.53292.07638,2.6716-.01273-.0073-.01273-.01946-.02546-.02546-.22785-.10948-.54004-.19897-.8142-.07638-.27202.14403-.37922.44144-.43252.71242-.09693.44775.01273.89564.10184,1.29763 .14221.67081.32847,1.29827.48343,1.80652 .05656.18522.1102.39666.17804.61065s.11948.44442.15258.68698 .05565.48312.07638.73786c.01873.23467.03037.48008.05092.71242 .01455.1704.03437.34314.07638.50889 .0451.17349.11584.32059.20355.45798 .0073.01091.01855.01455.02546.02546 .01818.14112.13112.35362.13403.66154 .0018.23856.07674.51252.05201.78876s-.0642.55502-.10184.8142c-.02764.18707-.04546.37326-.05092.53431-.0055.11475.01091.2253.02546.35622 .03637.30444.07911.58976.26431.87165 .10857.16767.21768.24178.39708.32954 .15349.07329.39415.1524.54444.17149 .19535.02528.40068.05165.55973.10184 .21759.06856.36918.15476.48344.22899-.1082-.08202-.27276-.19608-.48344-.27988-.16058-.06329-.34027-.11475-.53429-.15276-.14694-.02983-.39357-.09984-.519-.17149-.14749-.0802-.22726-.14785-.32076-.30408-.1584-.26987-.18669-.51711-.21341-.79534-.01928-.1908-.01273-.3965 0-.55975 .0073-.09766.01455-.19042.02546-.30532 .02564-.24687.0451-.53597.05092-.8142s-.08074-.54424-.10293-.78876c-.02528-.2796-.15312-.4853-.18488-.63609 .07493.10911.15349.21348.22899.30532 .2217.27102.39337.4907.50887.66154s.17804.27988.17804.27988-.04546-.10348-.15276-.27988-.2726-.43011-.48343-.71242c-.08511-.11439-.2002-.21999-.27987-.3562s-.14439-.29524-.17804-.458-.04219-.33645-.05092-.50887c-.01273-.22996-.01455-.44878-.02546-.68698-.01091-.24976-.02382-.51365-.05092-.76332s-.0591-.47999-.1273-.7124c-.10366-.35213-.19475-.69964-.27986-.99231-.12112-.41641-.26356-.88716-.38168-1.39942-.02673-.11912-.04946-.2351-.07638-.3562 .07383.18853.16512.282.30532.43254 .37435.40201.63609.02546.63609.02546 .30524.23596.82666.98244 1.73017,2.97692-.06838-.13548-.18609-.18755-.30534-.25443-.21814-.12239-.6495.08511-.68696.40708-.0651.55948.37875,2.08572.43254,1.78106 .04037-.22856-.24374-.99475-.07638-1.34851 .08711-.18411.44025-.23287.71244-.1273 .07183.02801.04546-.1744 0-.30534-.0012-.0055.0012-.02164 0-.02546-.69689-1.86027-1.34206-3.15979-1.88284-3.79112-.32027-.37389-.65759-.57017-.81419-.55975-.06347.0055-.10329.11311-.1273.20355-.0008-.09802.0055-.1836.02546-.27988 .05619-.25527.14185-.52993.3562-.63609 .20235-.11275.46699-.05183.68698.05092 .94894.44282 1.24444,1.09715 1.67929,1.89557 .21386.39263.66836,1.66418.9287,2.70974-.13148-1.12167-.4484-2.07775-.55977-2.41715l1.46303.02546c.01273.29068.03619.57726.10184.86509 .10311.45979.32505.91877.687,1.24675 .48634.42929 1.1101.60571 1.70471.7633 .96478.26162 1.95655.37977 2.95148.38166 1.30943.0036 2.62441-.09238 3.91833-.30532 .45917-.07547.92281-.16767 1.37396-.30534 .1513-.04601.30895-.08165.45798-.15276 .09093-.04001.19302-.10457.27989-.20355 .23898-.29597.349-.65563.43254-.9923 .10075-.39095.15585-.78198.22899-1.1704 .05074-.27251.0411-.57426-.02546-.83964 .75906-.5693 1.68235-.63557 2.13727-.63609 .47348-.00051 1.26633.17294 2.01005.55975 .0012.10966.0055.22252.02546.33078 .0782.38743.17385.78083.27987,1.17042 .08802.33552.18966.69953.43254.9923 .0882.09784.18844.16476.27989.20355 .15003.06911.30619.10875.45798.15258 .45297.13166.91382.21061 1.37396.27989 1.29663.19579 2.60906.27482 3.91833.25443 .9948-.01455 1.99025-.13275 2.95146-.4071 .59249-.16549 1.22416-.3785 1.70473-.8142 .35757-.33276.56455-.78562.66154-1.24673 .06238-.29146.09457-.59694.10184-.89055l2.00872-.43252c-.22917.44658-.42694,1.13196-.60933,1.85738 .26062-.70553.67703-1.56278.94143-2.01005 .06601-.11184.2355-.37826.40708-.53431s.36753-.31083.58521-.458c.15003-.10093.31194-.19213.48343-.25443 .22526-.07638.48219-.16603.66154-.05092 .11857.06129.20557.18586.25445.33078-.05165-.02492-.12439-.02673-.20357-.02546-.18609.0036-.45597.08438-.7633.33078-.62682.50227-1.18053,1.60959-2.03549,4.32543-.01273.04074-.01273.08565-.02546.1273-.01091.07383.0018.16949.05092.15276 .44638-.15658.7838-.0055.83965.35622 .0591.38284-.41892,1.06056-.30532,1.14496 .11657.08656.27613-.27791.40708-.58521 .14839-.34802.26962-.65934.25445-.94143-.03619-.67101-.54588-1.01419-.96685-.61063 .98066-2.48982 1.41693-3.04144 1.73016-3.2568 0,0 .12693.30273.58521,0 .20235-.13366.41239-.29331.50887-.50887 .02073.34014-.04146.68023-.10184,1.01774-.12457.68574-.30932,1.31636-.48344,1.83196-.05328.15767-.11366.32972-.17804.50887-.08002.22332-.13075.45995-.17804.71242s-.09329.52827-.1273.78876c-.03182.24161-.04456.47555-.07638.71242-.02364.17385-.05801.35218-.10184.50889s-.12493.28411-.22899.40708-.22305.25489-.33078.35622c-.13184.12257-.25343.22337-.35622.33078s-.18884.19508-.25443.27988c.06783-.0782.17767-.15712.27988-.25443 .10711-.10202.21859-.21339.35622-.33078 .11239-.09529.24312-.20686.35622-.33078s.22165-.25596.27988-.43252c.05256-.16385.07201-.33656.10184-.50889 .04092-.23559.08729-.47179.1273-.71242 .04237-.25347.07492-.51845.1273-.7633s.12021-.46993.20355-.68698c.11984-.31352.21985-.62053.30532-.89053 .13712-.43314.26654-.95281.35622-1.5012 .06747-.40585.12839-.83895.05092-1.27217-.04346-.26984-.13057-.57026-.38166-.71242-.09347-.04819-.20668-.07602-.30532-.07638-.1644-.00076-.31461.06765-.45798.1273-.18302.0742-.36086.17203-.50887.27987-.12512.09111-.22146.18484-.33078.27989l-.38168.05074c.02982-.08311.05583-.18058.07638-.27989 .28413-1.36917 1.04049-5.92063 1.01774-8.19286-.05183-5.17995 1.19985-7.3312-2.54438-11.85679-.94132-1.13776-2.05284-2.15399-3.28222-3.00234 .64733.16894 1.33366.42996 2.06093.78874-1.59927-1.29216-2.97305-2.18065-4.17277-2.79881l1.75561.27989c-3.87751-1.91674-7.18342-2.48531-9.7195-2.46805h3.6e-005zm6.00472,9.49052c1.35373.0012 2.461.28951 3.12957,1.1704 1.94494,2.56258 2.48797,4.44479 2.72249,6.61538s.18804,3.76012.94141,4.96151c.70069,1.11743.85227,4.48188.73786,5.41951l-1.50118.15276c-.07402-.1293-.14603-.22888-.25443-.33078-.3295-.30754-.7463-.50261-1.14496-.66154-.68361-.27489-1.41869-.39836-2.13727-.48343-.61416-.07329-1.21467-.11766-1.83194-.1273-.4893-.0073-.99502.02837-1.47574.07638-.58376.05801-1.15202.13184-1.73017.22897-.53362.08966-1.07664.19068-1.60295.33078-.20259.05383-.41061.12875-.61065.20355-.13748.05037-.27276.11057-.4071.20355-.32996.23247-.56735.55848-.68698.94141-.03164.10093-.06038.20013-.07638.30532-.60872-.30715-1.45257-.48775-2.11183-.48343-.68214.0055-1.69122.25514-2.16272.58521-.13712-.30768-.35631-.59714-.63609-.78876-.13548-.09111-.29446-.12948-.43254-.17804-.201-.0722-.40739-.12694-.61065-.17804-.52814-.13312-1.04274-.24823-1.57751-.33076-.57941-.08947-1.17115-.15349-1.75563-.20357-.4813-.04146-.96112-.06474-1.45028-.05092-.61709.01819-1.24424.04583-1.8574.1273-.71738.09456-1.43191.25036-2.11182.53433-.39652.16422-.81959.34965-1.14498.66154-.20764.20037-.34693.45375-.40708.73786l-.89053-.05092c-.20851-.58401-.80915-2.38005-.66154-3.384 .14476-.98489.82704-.99337.91597-2.41717s-.2562-6.6532.17804-8.11654 2.35938-4.44184 4.071-4.96151c2.95924-.89851 5.37536.83472 9.69404.66153 2.83413-.11366 6.29542-1.17379 8.87986-1.17042l-3.7e-005,3.7e-005zm-.07638,16.97096c.23821-.01455.47566-.0055.71242,0 .60985.0091 1.22749.02946 1.83196.10184 .70954.08547 1.41073.22001 2.06093.48343 .38833.15876.78058.33603 1.06864.61065 .22585.21374.37695.51101.38164.81419 .0091.41581-.01637.82459-.10184,1.22131-.09402.42563-.27475.83861-.58519,1.11952-.4213.39277-.9925.59228-1.57752.76332-.93541.26767-1.92305.36618-2.90058.38166-1.29741.02-2.58631-.03546-3.86743-.22899-.45542-.06892-.91251-.15258-1.34853-.27989-.14639-.04292-.30053-.09129-.43254-.15258-.08511-.04274-.16585-.07674-.20355-.1273-.20379-.23381-.28813-.55982-.38166-.89053-.01273-.04492-.01455-.10748-.02528-.15276 .03164-.09002.02055-.23994 0-.43254 .13548-.06911.21202-.22597.17804-.38166s-.17622-.27608-.33076-.27987c-.03619-.1002-.06256-.18942-.10184-.25443 .00015-.01819-.00076-.03273 0-.05092v-.07638c.01091-.13003.03764-.2568.07638-.38166 .10366-.33149.32789-.61669.61065-.81419 .10184-.07292.22343-.1273.35622-.17804 .1886-.07074.38673-.12512.58521-.17804 .51531-.1373 1.02263-.24167 1.55206-.33076 .57294-.09638 1.15235-.17167 1.73016-.22901 .23878-.02364.47422-.0611.71242-.07638v-7.2e-005zm-16.5893.63609h.3562c.35624.0055.71007.04583 1.06864.07638 .57852.04965 1.156.11475 1.73017.20355 .53056.08202 1.06042.17476 1.57751.30532 .19917.05037.39568.10984.58521.17804 .13348.04892.2534.10657.35622.17804 .28537.19373.50256.4841.61064.81419 .05383.16585.09748.33569.10184.50889-.03819.06547-.09238.15403-.1273.25443-.15621.0055-.29819.12021-.33078.27989-.03146.15403.0702.28759.20355.3562-.01855.19468-.0073.36773.02546.45798-.01091.04692-.03892.08074-.05092.1273-.08911.33191-.18095.67947-.38166.91597-.03692.0511-.09365.08311-.17804.1273-.13112.0631-.28662.10784-.43254.15276-.43429.13312-.86862.20482-1.32307.27989-1.27843.21059-2.59533.3081-3.89287.30532-.97767-.0018-1.93625-.10093-2.87515-.3562-.58725-.16331-1.2019-.35074-1.62839-.73788-.31417-.27675-.4855-.66974-.58521-1.09408-.09147-.39554-.10584-.83084-.10184-1.24675 .00076-.30323.1333-.59747.35622-.8142 .28437-.27842.65699-.4468 1.0432-.61064 .64662-.27202 1.35257-.41381 2.06093-.50889 .60345-.08038 1.22227-.13512 1.83194-.15276l3.7e-005,5.5e-005z" fill="#87aade"/>
 <path d="m30.753 62.984s2.8741 4.5575 7.062 4.6807 8.2938-4.8038 8.2938-4.8038-3.1615 5.0912-7.8011 5.0912-7.5547-4.9681-7.5547-4.9681z" fill="#3062ad"/>
</svg>
